<?xml version="1.0" encoding="utf-8"?>
<!-- Generator: Adobe Illustrator 24.1.3, SVG Export Plug-In . SVG Version: 6.00 Build 0)  -->
<svg version="1.1" id="Layer_1" xmlns="http://www.w3.org/2000/svg" xmlns:xlink="http://www.w3.org/1999/xlink" x="0px" y="0px"
	 viewBox="0 0 148 57" style="enable-background:new 0 0 148 57;" xml:space="preserve">
<style type="text/css">
	.st0{clip-path:url(#SVGID_2_);}
	.st1{fill:none;}
	.st2{fill:#4D49FF;}
</style>
<g>
	<defs>
		<rect id="SVGID_1_" x="13.8" y="6.4" width="120.2" height="44.6"/>
	</defs>
	<clipPath id="SVGID_2_">
		<use xlink:href="#SVGID_1_"  style="overflow:visible;"/>
	</clipPath>
	<g id="Logo_with_Margin" class="st0">
		<g id="Luggo_logo_Blue_RGB" transform="translate(8.004 6)">
			<rect id="Rectangle_1409" x="5.8" y="0.4" class="st1" width="120.2" height="44.6"/>
			<path id="Path_4288" class="st2" d="M50.5,23.3c0,0.9-0.4,1.9-1.1,2.5c-0.9,0.7-2,1.1-3.1,1h-2.8c-1.1,0.1-2.2-0.3-3.1-1
				c-0.7-0.6-1.1-1.6-1.1-2.5v-9.6c0-0.3-0.2-0.5-0.5-0.5c0,0,0,0,0,0h-2.4c-0.3,0-0.5,0.2-0.5,0.5v9.8c0,0.9,0.1,1.8,0.5,2.7
				c0.3,0.8,0.8,1.5,1.4,2.1c0.7,0.6,1.4,1.1,2.3,1.4c1,0.4,2.1,0.5,3.2,0.5h3.1c1.1,0,2.2-0.1,3.2-0.5c0.9-0.3,1.6-0.8,2.3-1.4
				c0.6-0.6,1.1-1.3,1.4-2.1c0.3-0.9,0.5-1.8,0.5-2.7v-9.8c0-0.3-0.2-0.5-0.5-0.5c0,0,0,0,0,0H51c-0.3,0-0.5,0.2-0.5,0.5
				c0,0,0,0,0,0V23.3z"/>
			<path id="Path_4289" class="st2" d="M114.7,15.3c-1.4-1.4-3.4-2.2-5.4-2.1h-3.6c-2-0.1-4,0.7-5.4,2.1c-1.5,1.8-2.2,4.1-2,6.4
				c-0.2,2.3,0.5,4.6,2,6.4c1.4,1.4,3.4,2.2,5.4,2.1h3.6c2,0.1,4-0.7,5.4-2.1c1.5-1.8,2.2-4.1,2-6.4
				C116.9,19.4,116.2,17.1,114.7,15.3z M112.3,25.6c-0.8,0.9-2,1.3-3.2,1.2h-2.9c-1.2,0.1-2.4-0.3-3.2-1.2c-0.8-1.2-1.1-2.6-1-4
				c-0.1-1.4,0.2-2.8,1-4c0.8-0.9,2-1.3,3.2-1.2h2.9c1.2-0.1,2.4,0.3,3.2,1.2c0.8,1.2,1.1,2.6,1,4C113.4,23.1,113,24.5,112.3,25.6
				L112.3,25.6z"/>
			<path id="Path_4290" class="st2" d="M30,22.8c-0.7,0.8-2.4,2.4-3.5,3.3c-0.4,0.3-0.5,0.5-1.1,0.6h-2c-1.1,0.1-2.2-0.3-3.1-1
				c-0.7-0.6-1.1-1.6-1.1-2.5V8.3c0-0.3-0.2-0.5-0.5-0.5h-2.4c-0.3,0-0.5,0.2-0.5,0.5v15.1c0,0.9,0.1,1.8,0.5,2.7
				c0.3,0.8,0.8,1.5,1.4,2.1c0.7,0.6,1.4,1.1,2.3,1.4c1,0.4,2.1,0.5,3.2,0.5h2.4c0.9,0,1.8-0.2,2.5-0.8c1.5-1.2,4.3-4,4.4-4.1
				L30,22.8z"/>
			<path id="Path_4291" class="st2" d="M33.4,22.8c-0.1-0.3-0.3-0.6-0.5-0.8c-0.3-0.2-0.7-0.4-1-0.4h-5.7c-0.3,0-0.5,0.2-0.5,0.5
				c0,0,0,0,0,0v1.5c0,0.2,0.1,0.4,0.3,0.5l3.6,1.4l1.4,3.6c0.1,0.2,0.3,0.3,0.5,0.3H33c0.3,0,0.5-0.2,0.5-0.5v0v-5.7
				C33.5,23.1,33.5,22.9,33.4,22.8z"/>
			<path id="Path_4292" class="st2" d="M73.4,15c-1.2-1.2-2.9-1.9-4.6-1.8h-4.7c-2-0.1-3.9,0.6-5.4,2c-1.4,1.7-2.2,3.9-2,6.1
				c-0.2,2.2,0.5,4.4,2,6.1c1.4,1.4,3.4,2.1,5.4,2h4.6c0.2,0,0.4-0.1,0.5-0.3l0.9-2.1c0.1-0.3,0-0.6-0.3-0.7c-0.1,0-0.1,0-0.2,0
				h-5.2c-1.2,0.1-2.4-0.3-3.2-1.2c-1.3-2.3-1.3-5.2,0-7.5c0.8-0.8,2-1.3,3.2-1.2h3.4c1.1-0.1,2.1,0.2,2.9,0.9c0.7,0.9,1,1.9,0.9,3
				v9.8c0.1,0.9-0.2,1.9-0.7,2.6c-0.7,0.6-1.7,0.9-2.6,0.8h-5.9c-0.2,0-0.4,0.1-0.5,0.3l-0.9,2.3c-0.1,0.3,0,0.6,0.3,0.7
				c0.1,0,0.1,0,0.2,0h7.2c1,0,2-0.1,3-0.4c0.8-0.2,1.4-0.6,2-1.2c0.5-0.6,0.9-1.3,1.1-2.1c0.2-1,0.4-2,0.3-3.1v-9.8
				C75.2,18.5,74.6,16.5,73.4,15z"/>
			<path id="Path_4293" class="st2" d="M94.2,15c-1.2-1.2-2.9-1.9-4.6-1.8h-4.7c-2-0.1-3.9,0.6-5.4,2c-1.4,1.7-2.2,3.9-2,6.1
				c-0.2,2.2,0.5,4.4,2,6.1c1.4,1.4,3.4,2.1,5.4,2h4.6c0.2,0,0.4-0.1,0.5-0.3l0.9-2.1c0.1-0.3,0-0.6-0.3-0.7c-0.1,0-0.1,0-0.2,0
				h-5.2C84,26.5,82.8,26,82,25.2c-1.3-2.3-1.3-5.2,0-7.5c0.8-0.8,2-1.3,3.2-1.2h3.4c1.1-0.1,2.1,0.2,2.9,0.9c0.7,0.9,1,1.9,0.9,3
				v9.8c0.1,0.9-0.2,1.9-0.7,2.6c-0.7,0.6-1.7,0.9-2.6,0.8H83c-0.2,0-0.4,0.1-0.5,0.3l-0.9,2.3c-0.1,0.3,0,0.6,0.3,0.7
				c0.1,0,0.1,0,0.2,0h7.2c1,0,2-0.1,3-0.4c0.8-0.2,1.4-0.6,2-1.2c0.5-0.6,0.9-1.3,1.1-2.1c0.2-1,0.4-2,0.3-3.1v-9.8
				C96,18.5,95.4,16.5,94.2,15z"/>
		</g>
	</g>
</g>
</svg>
